<svg width="327.665" height="124.64" xmlns="http://www.w3.org/2000/svg" viewBox="86.167 12.68 327.665 124.64" style="background:#fff" preserveAspectRatio="xMidYMid"><defs><linearGradient id="editing-gradient-gradient" x1="0" x2="1" y1=".5" y2=".5" gradientUnits="objectBoundingBox"><stop offset="0" stop-color="#e7008a"/><stop offset="1" stop-color="#ff003a"/></linearGradient></defs><path d="m12.03 12.86-7.29 1.28v-30.27q0-3.84-.52-6.43-.51-2.59-1.08-4.19-.71-1.86-1.54-3.01l5.76-2.3q.77.76 1.41 1.92.51.96 1.02 2.33.51 1.38.77 3.23 1.09-3.84 3.46-5.82 2.36-1.98 6.59-1.98 3.01 0 5.21 1.12 2.21 1.12 3.65 3.2t2.15 5.02q.7 2.94.7 6.53 0 3.65-1.09 6.75t-3.1 5.34Q26.11-2.18 23.3-.9 20.48.38 17.02.38q-1.21 0-2.46-.12Q13.31.13 12.03 0v12.86Zm7.36-40.12q-1.6 0-2.94 1.08-1.35 1.09-2.34 2.88-.99 1.8-1.53 4.04-.55 2.24-.55 4.6v9.22q.64.19 1.92.45 1.28.25 2.24.25 2.43 0 4.03-.83t2.56-2.3q.96-1.47 1.35-3.52.38-2.05.38-4.48 0-2.24-.13-4.29-.12-2.05-.67-3.65-.54-1.6-1.57-2.53-1.02-.92-2.75-.92Zm17.47 12.09q0-4.29 1.19-7.55 1.18-3.26 3.26-5.47t4.9-3.33q2.81-1.12 6.08-1.12 2.88 0 4.89.7 2.02.71 3.3 1.92 1.28 1.22 1.89 2.88.61 1.67.61 3.59 0 2.3-1.28 4.38t-3.68 3.65q-2.4 1.57-5.8 2.5-3.39.92-7.61.99.19 1.47.61 2.78.41 1.31 1.21 2.31.8.99 2.08 1.56 1.28.58 3.2.58 1.41 0 3.01-.32 1.6-.32 2.94-.77 1.6-.51 3.14-1.15l1.92 4.54q-1.66.84-3.58 1.48Q57.47-.45 55.3 0q-2.18.45-4.61.45-3.71 0-6.34-1.12-2.62-1.12-4.29-3.17-1.66-2.05-2.43-4.93-.77-2.88-.77-6.4Zm14.85-12.48q-2.11 0-3.49.99-1.37 1-2.2 2.56-.84 1.57-1.19 3.52-.35 1.96-.41 3.94 3.07-.13 5.21-.8 2.15-.67 3.49-1.66 1.34-1 1.95-2.15.61-1.15.61-2.3 0-1.86-1.09-2.98-1.09-1.12-2.88-1.12Zm13.83.96v-5.18h5.76l1.28-7.49 6.01-1.34v8.83h7.87l-.89 5.18h-6.98v18.95q0 1.66.9 2.14.89.48 1.98.48.9 0 1.79-.13.9-.13 1.6-.32.84-.19 1.6-.45l1.22 4.8-.58.2q-.57.25-1.69.54-1.12.29-2.63.51-1.5.23-3.29.23t-3.3-.39q-1.5-.38-2.59-1.25-1.09-.86-1.7-2.2-.6-1.35-.6-3.33v-19.78h-5.76ZM94.21 11.2 96 5.63q.96.39 2.05.8 1.09.42 2.3.8 1.22.39 2.47.64 1.24.26 2.46.26 3.58 0 5.18-2.15 1.6-2.14 1.6-5.53 0-3.33-1.4-6.72-1.09 3.26-3.43 4.96Q104.9.38 101.06.38q-3.01 0-5.22-1.12t-3.68-3.2q-1.47-2.08-2.18-5.02-.7-2.94-.7-6.53 0-3.65 1.12-6.75t3.14-5.34q2.01-2.24 4.83-3.52 2.81-1.28 6.21-1.28 1.53 0 3.29.19t3.46.48q1.69.29 3.2.61 1.5.32 2.59.57l-.32 17.6q-.06 1.92.22 3.52.29 1.6.68 3.17.38 1.57.7 3.17.32 1.6.32 3.52 0 6.78-3.46 10.11-3.45 3.33-9.34 3.33-1.92 0-3.84-.35-1.92-.36-3.55-.8-1.63-.45-2.79-.9-1.15-.45-1.53-.64Zm8.06-15.94q1.54 0 2.85-1.02t2.34-2.72q1.02-1.7 1.6-3.87.57-2.18.57-4.48v-9.73q-.64-.19-1.92-.45-1.28-.25-2.3-.25-2.43 0-4 .83-1.57.83-2.53 2.3-.96 1.47-1.34 3.52-.39 2.05-.39 4.48 0 2.24.13 4.29t.67 3.65q.55 1.6 1.57 2.53 1.02.92 2.75.92Zm36.55-20.48q-1.16 0-2.31.58-1.15.58-2.05 1.57-.89.99-1.47 2.4-.57 1.41-.57 3.13V0h-7.3v-16.13q0-3.84-.51-6.43t-1.09-4.19q-.7-1.86-1.54-3.01l5.76-2.3q.58.7 1.22 1.72.51.9 1.02 2.12.52 1.21.84 2.88 1.28-3.72 3.71-5.35 2.43-1.63 5.5-1.63 1.47 0 2.75.35t1.22.35l-2.05 7.11q.07 0-.73-.35-.8-.36-2.4-.36Zm33.15-5.31v15.11q0 3.84.48 6.43t1.05 4.19q.71 1.92 1.54 3.01l-5.7 2.3q-.83-.83-1.53-1.98-.58-1.03-1.09-2.47-.51-1.44-.64-3.42-1.09 3.84-3.49 5.79-2.4 1.95-6.49 1.95-3.01 0-5.22-1.12t-3.68-3.2q-1.47-2.08-2.18-5.02-.7-2.94-.7-6.53 0-3.65 1.12-6.75t3.14-5.34q2.01-2.24 4.83-3.52 2.81-1.28 6.21-1.28 1.92 0 4 .28 2.08.29 3.87.61t3.04.61q1.25.29 1.44.35ZM157.31-4.74q1.6 0 2.95-1.08 1.34-1.09 2.33-2.85t1.54-4.03q.54-2.28.54-4.64v-9.22q-.64-.19-1.92-.45-1.28-.25-2.3-.25-2.43 0-4 .83-1.57.83-2.53 2.3-.96 1.47-1.34 3.52-.39 2.05-.39 4.48 0 2.24.13 4.29t.67 3.65q.55 1.6 1.57 2.53 1.02.92 2.75.92ZM223.04 0h-7.23v-20.86q0-2.69-.83-4.26-.84-1.57-2.88-1.57-1.22 0-2.47.67-1.25.68-2.27 1.96-1.02 1.28-1.66 3.07-.64 1.79-.64 3.97V0h-7.24v-20.86q0-2.69-.83-4.26-.83-1.57-2.88-1.57-1.28 0-2.53.74-1.24.73-2.24 2.14-.99 1.41-1.6 3.43-.6 2.01-.6 4.51V0h-7.3v-16.13q0-3.84-.51-6.43t-1.09-4.19q-.7-1.86-1.54-3.01l5.76-2.3q.64.7 1.28 1.72.52.9 1.03 2.21t.83 2.98q1.6-3.84 4.51-5.54 2.91-1.69 6.18-1.69 3.26 0 5.09 1.66 1.82 1.66 2.72 4.29 1.72-3.2 4.44-4.58 2.72-1.37 5.73-1.37 2.5 0 4.19.8 1.7.8 2.69 2.24.99 1.44 1.44 3.45.45 2.02.45 4.51V0Z" fill="url(#editing-gradient-gradient)" transform="translate(137.68 102.42)"/><style></style></svg>